<?xml version="1.0" encoding="iso-8859-1"?>
<!-- Uploaded to: SVG Repo, www.svgrepo.com, Generator: SVG Repo Mixer Tools -->
<svg height="800px" width="800px" version="1.1" id="Layer_1" xmlns="http://www.w3.org/2000/svg" xmlns:xlink="http://www.w3.org/1999/xlink" 
	 viewBox="0 0 241.159 241.159" xml:space="preserve">
<g>
	<g>
		<g id="XMLID_31_">
			<g>
				<path style="fill:#EAEEEF;" d="M98.719,15.526l99.601,99.871l-10.783,10.813c-26.943,27.003-70.736,27.003-97.648,0.03
					l-1.952-1.952C74.9,111.192,67.721,93.831,67.721,75.328S74.9,39.435,87.936,26.339L98.719,15.526z"/>
				<path style="fill:#2D213F;" d="M209.673,105.034c5.677,5.707,5.677,15.018,0,20.725l-11.324,11.324
					c-16.43,16.52-38.026,24.75-59.652,24.75c-17.211,0-34.362-5.316-48.989-15.799c-0.18,1.802-0.541,3.544-1.201,5.196
					l31.808,79.386c0.961,2.373,0.661,5.046-0.751,7.179c-1.442,2.103-3.815,3.364-6.368,3.364H34.891
					c-2.463,0-4.776-1.201-6.218-3.184c-1.442-2.012-1.832-4.596-1.051-6.938c8.5-25.351,21.596-64.939,25.471-77.764
					c-4.025-7.479-2.974-16.971,3.304-23.248c3.274-3.304,7.449-5.106,11.774-5.557C57.959,110.201,52.403,93.2,52.403,75.328
					c0-22.617,8.771-43.853,24.69-59.832L88.416,4.142c5.497-5.527,15.138-5.527,20.635,0.03l43.192,43.282l2.763-2.823
					c-0.811-2.163-1.322-4.475-1.322-6.908c0-10.603,8.59-19.223,19.163-19.223s19.163,8.62,19.163,19.223
					c0,10.573-8.59,19.193-19.163,19.193c-2.493,0-4.866-0.511-7.029-1.382l-2.733,2.793L209.673,105.034z M198.319,115.397
					l-99.6-99.871L87.936,26.339C74.9,39.435,67.721,56.826,67.721,75.328s7.179,35.863,20.214,48.959l1.952,1.952
					c26.913,26.973,70.706,26.973,97.648-0.03L198.319,115.397z M176.663,37.723c0-2.133-1.712-3.845-3.815-3.845
					c-2.133,0-3.845,1.712-3.845,3.845c0,2.103,1.712,3.845,3.845,3.845C174.951,41.568,176.663,39.825,176.663,37.723z
					 M101.872,225.78l-25.351-63.257c-2.012,0.691-4.115,1.111-6.248,1.111c-1.412,0-2.823-0.21-4.205-0.511
					c-3.094,9.942-9.011,28.264-20.515,62.656C45.554,225.78,101.872,225.78,101.872,225.78z M74.599,143.93
					c0-1.141-0.451-2.223-1.262-3.064c-0.841-0.841-1.952-1.262-3.064-1.262c-1.111,0-2.193,0.421-3.034,1.262
					c-1.682,1.682-1.682,4.445,0,6.127c0.841,0.841,1.952,1.262,3.034,1.262c1.111,0,2.223-0.421,3.064-1.262
					C74.149,146.184,74.599,145.103,74.599,143.93z"/>
			</g>
		</g>
		<path style="fill:#C5CBCF;" d="M137.186,54.096l32.28,44.694c7.044,9.753,1.601,23.509-10.194,25.87
			c-57.904,11.588-83.57-28.637-91.32-44.577c1.123,16.703,8.074,32.241,19.983,44.204l1.952,1.952
			c26.913,26.973,70.706,26.973,97.648-0.03l10.783-10.813L137.186,54.096z"/>
	</g>
</g>
</svg>